<?xml version="1.0" encoding="UTF-8"?>
<svg version="1.1" xmlns="http://www.w3.org/2000/svg" width="16" height="16">
<path d="M0 0 C5.28 0 10.56 0 16 0 C16 5.28 16 10.56 16 16 C10.72 16 5.44 16 0 16 C0 10.72 0 5.44 0 0 Z " fill="#601114" transform="translate(0,0)"/>
<path d="M0 0 C2.9375 0.8125 2.9375 0.8125 4.9375 3.8125 C4.7300099 6.57903462 4.23471306 8.34321623 2.75 10.6875 C0.9375 11.8125 0.9375 11.8125 -2.125 11.6875 C-5.0625 10.8125 -5.0625 10.8125 -7.0625 7.8125 C-6.875 4.75 -6.875 4.75 -6.0625 1.8125 C-3.0625 -0.1875 -3.0625 -0.1875 0 0 Z " fill="#814340" transform="translate(9.0625,2.1875)"/>
<path d="M0 0 C2 3 2 3 1.625 5.6875 C1.41875 6.450625 1.2125 7.21375 1 8 C0.67 7.34 0.34 6.68 0 6 C-0.66 6 -1.32 6 -2 6 C-2 4.68 -2 3.36 -2 2 C-3.65 2 -5.3 2 -7 2 C-7.33 2.66 -7.66 3.32 -8 4 C-8 2.68 -8 1.36 -8 0 C-5.06791253 -1.46604374 -3.11702298 -0.77925574 0 0 Z " fill="#6E2727" transform="translate(12,3)"/>
<path d="M0 0 C1.32 0.99 2.64 1.98 4 3 C3.67 3.66 3.34 4.32 3 5 C5.31 5 7.62 5 10 5 C10 5.66 10 6.32 10 7 C7.25 7.75 7.25 7.75 4 8 C1.625 6.3125 1.625 6.3125 0 4 C0 2.68 0 1.36 0 0 Z " fill="#722C2C" transform="translate(2,6)"/>
</svg>
