<?xml version="1.0" encoding="UTF-8"?>
<svg version="1.1" xmlns="http://www.w3.org/2000/svg" width="16" height="16">
<path d="M0 0 C5.28 0 10.56 0 16 0 C16 5.28 16 10.56 16 16 C10.72 16 5.44 16 0 16 C0 10.72 0 5.44 0 0 Z " fill="#5F1113" transform="translate(0,0)"/>
<path d="M0 0 C0 3.96 0 7.92 0 12 C-3.63 12 -7.26 12 -11 12 C-10.72603479 8.07316532 -10.22390251 6.27231386 -7.6875 3.1875 C-5.04567364 1.03717622 -3.3854451 0 0 0 Z " fill="#681F1F" transform="translate(16,4)"/>
<path d="M0 0 C0 2.64 0 5.28 0 8 C-2.97 8 -5.94 8 -9 8 C-9.33 7.01 -9.66 6.02 -10 5 C-9.01 5 -8.02 5 -7 5 C-5.97971135 3.68212715 -4.98028616 2.34789347 -4 1 C-1 0 -1 0 0 0 Z " fill="#884E4A" transform="translate(16,8)"/>
<path d="M0 0 C0.66 0.33 1.32 0.66 2 1 C2 1.99 2 2.98 2 4 C2.33 4.66 2.66 5.32 3 6 C2.34 6.66 1.68 7.32 1 8 C0.34 7.34 -0.32 6.68 -1 6 C-1 6.99 -1 7.98 -1 9 C-1.66 9 -2.32 9 -3 9 C-2.5020163 5.26512223 -2.12508244 3.18762365 0 0 Z " fill="#763432" transform="translate(8,7)"/>
<path d="M0 0 C0 2.64 0 5.28 0 8 C-0.66 8 -1.32 8 -2 8 C-2 7.01 -2 6.02 -2 5 C-2.66 4.67 -3.32 4.34 -4 4 C-4 3.01 -4 2.02 -4 1 C-1 0 -1 0 0 0 Z " fill="#834743" transform="translate(16,8)"/>
</svg>
